<?xml version="1.0" encoding="UTF-8" standalone="no"?>
<svg width="186px" height="120px" viewBox="0 0 186 120" version="1.1" xmlns="http://www.w3.org/2000/svg" xmlns:xlink="http://www.w3.org/1999/xlink" xmlns:sketch="http://www.bohemiancoding.com/sketch/ns">
    <!-- Generator: Sketch 3.1.1 (8761) - http://www.bohemiancoding.com/sketch -->
    <title>Discovry</title>
    <desc>Created with Sketch.</desc>
    <defs>
        <filter x="-50%" y="-50%" width="200%" height="200%" filterUnits="objectBoundingBox" id="filter-1">
            <feOffset dx="0" dy="0" in="SourceAlpha" result="shadowOffsetOuter1"></feOffset>
            <feGaussianBlur stdDeviation="10" in="shadowOffsetOuter1" result="shadowBlurOuter1"></feGaussianBlur>
            <feColorMatrix values="0 0 0 0 0   0 0 0 0 0   0 0 0 0 0  0 0 0 0.35 0" in="shadowBlurOuter1" type="matrix" result="shadowMatrixOuter1"></feColorMatrix>
            <feMerge>
                <feMergeNode in="shadowMatrixOuter1"></feMergeNode>
                <feMergeNode in="SourceGraphic"></feMergeNode>
            </feMerge>
        </filter>
    </defs>
    <g id="Page-1" stroke="none" stroke-width="1" fill="none" fill-rule="evenodd" sketch:type="MSPage">
        <path d="M25.2590553,89.9387261 L25.2590553,68.2370791 L27.9104607,68.2370791 C29.0985281,68.2370791 30.0475189,68.4604337 30.7574616,68.9071498 C31.4674043,69.3538659 32.0034754,70.016725 32.3656911,70.895747 C32.7279068,71.7747689 32.9669655,72.8771324 33.0828745,74.2028705 C33.1987835,75.5286085 33.2567372,77.0704764 33.2567372,78.8285203 C33.2567372,80.932409 33.1915393,82.6904265 33.0611417,84.1026258 C32.9307441,85.514825 32.6699527,86.6532134 32.2787598,87.5178252 C31.8875669,88.382437 31.3587399,89.0020661 30.6922631,89.3767312 C30.0257863,89.7513963 29.1419933,89.9387261 28.0408577,89.9387261 L25.2590553,89.9387261 Z M19,63.6546596 L19,94.5211456 L28.8667053,94.5211456 C30.9530675,94.5211456 32.6771882,94.204126 34.0391191,93.5700774 C35.40105,92.9360287 36.4876807,91.9705601 37.2990438,90.6736424 C38.1104068,89.3767247 38.682699,87.726782 39.0159374,85.7237647 C39.3491758,83.7207475 39.5157925,81.3647157 39.5157925,78.6555988 C39.5157925,76.3787878 39.3853968,74.3181607 39.1246016,72.4736556 C38.8638063,70.6291504 38.3639562,69.0512576 37.6250362,67.7399298 C36.8861163,66.4286019 35.850195,65.4199033 34.5172414,64.7138037 C33.1842877,64.0077041 31.4311902,63.6546596 29.2578963,63.6546596 L19,63.6546596 Z M43.6884961,63.3088166 L43.6884961,68.4100005 L49.6867575,68.4100005 L49.6867575,63.3088166 L43.6884961,63.3088166 Z M43.6884961,71.2632051 L43.6884961,94.5211456 L49.6867575,94.5211456 L49.6867575,71.2632051 L43.6884961,71.2632051 Z M58.2929586,86.9126 L52.9032165,86.9126 L52.9032165,87.7339771 C52.9032165,88.8579724 53.0336121,89.873876 53.2944074,90.7817183 C53.5552027,91.6895607 54.0115876,92.4604946 54.6635758,93.0945433 C55.315564,93.7285919 56.1993569,94.2041212 57.3149812,94.5211456 C58.4306054,94.8381699 59.8287369,94.9966797 61.5094176,94.9966797 C62.7844167,94.9966797 63.9507336,94.8669898 65.0084034,94.6076063 C66.0660731,94.3482228 66.9788429,93.9159234 67.7467401,93.3106951 C68.5146373,92.7054669 69.1159063,91.9489429 69.5505651,91.0411006 C69.9852238,90.1332582 70.20255,89.0597147 70.20255,87.8204378 C70.20255,86.0623939 69.8113629,84.6718308 69.0289771,83.6487069 C68.2465913,82.6255829 66.9136576,81.7970091 65.0301362,81.1629604 L61.4224862,79.95251 C60.4082824,79.6354857 59.7200829,79.2464162 59.3578673,78.78529 C58.9956516,78.3241637 58.8145465,77.8054044 58.8145465,77.2289965 C58.8145465,76.3932052 59.0970705,75.766371 59.6621269,75.3484753 C60.2271834,74.9305796 60.886406,74.7216349 61.6398145,74.7216349 C62.6250411,74.7216349 63.3132406,75.0026295 63.7044335,75.5646272 C64.0956264,76.1266249 64.2912199,77.0128386 64.2912199,78.2232951 L69.680962,78.2232951 L69.680962,77.2722269 C69.680962,75.1683383 69.0289836,73.5400105 67.7250072,72.3871948 C66.4210309,71.2343791 64.407142,70.6579799 61.6832802,70.6579799 C60.1474858,70.6579799 58.8362848,70.8453097 57.7496378,71.2199748 C56.6629908,71.5946399 55.7719536,72.0989892 55.0764996,72.7330378 C54.3810455,73.3670864 53.8739512,74.1092004 53.5552014,74.959402 C53.2364516,75.8096036 53.0770791,76.7102273 53.0770791,77.6613003 C53.0770791,79.3040626 53.497243,80.6513958 54.3375833,81.7033401 C55.1779236,82.7552844 56.4239268,83.5694483 58.0756303,84.1458561 L62.2917995,85.6589192 C62.8713445,85.8894823 63.3784389,86.1992969 63.8130977,86.5883722 C64.2477564,86.9774475 64.4650826,87.5466417 64.4650826,88.2959719 C64.4650826,89.2182245 64.1898028,89.9099035 63.639235,90.3710298 C63.0886672,90.8321561 62.3497583,91.0627158 61.4224862,91.0627158 C60.4082824,91.0627158 59.6331525,90.7529012 59.0970733,90.1332627 C58.5609941,89.5136243 58.2929586,88.6994604 58.2929586,87.6907467 L58.2929586,86.9126 Z M84.4592872,79.6498974 L90.1967546,79.6498974 C90.1967546,76.8831397 89.4940667,74.6928228 88.08867,73.0788808 C86.6832732,71.4649388 84.5896981,70.6579799 81.8078818,70.6579799 C80.4169736,70.6579799 79.1419936,70.8453097 77.9829035,71.2199748 C76.8238134,71.5946399 75.8241132,72.250294 74.9837728,73.1869567 C74.1434325,74.1236195 73.4914541,75.3772877 73.027818,76.9479991 C72.564182,78.5187105 72.3323674,80.5000828 72.3323674,82.8921753 C72.3323674,85.2266271 72.5207167,87.1791794 72.897421,88.7498908 C73.2741253,90.3206022 73.8319291,91.5742705 74.570849,92.5109332 C75.309769,93.447596 76.2370272,94.0960451 77.3526514,94.4563 C78.4682756,94.8165549 79.7794767,94.9966797 81.2862938,94.9966797 C84.4737917,94.9966797 86.7557161,94.1969258 88.1321356,92.597394 C89.5085551,90.9978622 90.1967546,88.6706504 90.1967546,85.6156888 L84.4592872,85.6156888 C84.4592872,87.5178347 84.2274726,88.9011928 83.7638366,89.7658046 C83.3002005,90.6304163 82.5612917,91.0627158 81.5470878,91.0627158 C80.880611,91.0627158 80.3372956,90.911411 79.9171255,90.6087968 C79.4969553,90.3061827 79.1709661,89.8234484 78.9391481,89.1605794 C78.70733,88.4977103 78.5479575,87.6547265 78.4610258,86.6316026 C78.374094,85.6084786 78.3306288,84.3764253 78.3306288,82.9354057 C78.3306288,81.5808473 78.374094,80.4064339 78.4610258,79.4121304 C78.5479575,78.4178268 78.70733,77.596458 78.9391481,76.9479991 C79.1709661,76.2995403 79.5186879,75.809601 79.982324,75.4781665 C80.44596,75.1467319 81.0399848,74.9810172 81.7644161,74.9810172 C82.3439612,74.9810172 82.8075903,75.117912 83.1553173,75.3917057 C83.5030443,75.6654994 83.7710799,76.0257489 83.959432,76.472465 C84.1477842,76.9191811 84.2781799,77.4163254 84.350623,77.9639129 C84.4230661,78.5115003 84.4592872,79.0734896 84.4592872,79.6498974 L84.4592872,79.6498974 Z M98.5421617,82.8921753 C98.5421617,81.7105393 98.5711385,80.6153808 98.629093,79.606667 C98.6870475,78.5979533 98.8246874,77.7333545 99.0420168,77.0128447 C99.2593462,76.2923349 99.5853354,75.7303456 100.019994,75.3268602 C100.454653,74.9233747 101.034189,74.7216349 101.758621,74.7216349 C102.975665,74.7216349 103.815993,75.3556741 104.279629,76.6237713 C104.743265,77.8918686 104.97508,79.9813157 104.97508,82.8921753 C104.97508,85.803035 104.743265,87.8924821 104.279629,89.1605794 C103.815993,90.4286766 102.975665,91.0627158 101.758621,91.0627158 C101.034189,91.0627158 100.454653,90.860976 100.019994,90.4574905 C99.5853354,90.054005 99.2593462,89.4920158 99.0420168,88.771506 C98.8246874,88.0509962 98.6870475,87.1863974 98.629093,86.1776837 C98.5711385,85.1689699 98.5421617,84.0738114 98.5421617,82.8921753 L98.5421617,82.8921753 Z M92.5439003,82.8921753 C92.5439003,84.9096028 92.6887844,86.6892354 92.9785569,88.2311264 C93.2683295,89.7730173 93.7609354,91.0555056 94.4563895,92.0786295 C95.1518435,93.1017534 96.0935901,93.8510724 97.2816575,94.3266089 C98.4697249,94.8021454 99.962031,95.0255 101.758621,94.9966797 C103.468279,94.9966797 104.909875,94.75171 106.083454,94.2617633 C107.257033,93.7718166 108.206024,93.0152927 108.930455,91.9921688 C109.654886,90.9690448 110.176469,89.6937616 110.495219,88.1662808 C110.813969,86.6388 110.973341,84.8807824 110.973341,82.8921753 C110.973341,80.8459275 110.828457,79.05909 110.538684,77.5316092 C110.248912,76.0041284 109.756306,74.7216401 109.060852,73.684106 C108.365398,72.6465719 107.423651,71.8756379 106.235584,71.3712811 C105.047517,70.8669242 103.55521,70.6291595 101.758621,70.6579799 C100.048963,70.6579799 98.6073661,70.9245645 97.4337873,71.4577418 C96.2602086,71.9909191 95.3112178,72.769058 94.5867864,73.7921819 C93.8623551,74.8153059 93.3407724,76.0905891 93.0220226,77.6180699 C92.7032728,79.1455507 92.5439003,80.9035683 92.5439003,82.8921753 L92.5439003,82.8921753 Z M112.059983,71.133514 L117.623587,94.5211456 L126.838308,94.5211456 L132.575775,71.133514 L124.491162,71.133514 L122.317879,87.9501289 L122.230948,87.9501289 L120.014199,71.133514 L112.059983,71.133514 Z M133.662417,71.133514 L133.662417,94.5211456 L141.486236,94.5211456 L141.486236,81.7681857 C141.486236,80.2118845 141.870179,79.131136 142.638076,78.5259077 C143.405973,77.9206795 144.48536,77.6180699 145.876268,77.6180699 C146.195018,77.6180699 146.513763,77.6324799 146.832512,77.6613003 C147.151262,77.6901207 147.484496,77.7333506 147.832223,77.7909914 L147.832223,70.5282888 L146.571718,70.5282888 C145.412628,70.5282888 144.354974,70.8957433 143.398725,71.6306633 C142.442476,72.3655833 141.747032,73.4391268 141.312373,74.8513261 L141.225442,74.8513261 L141.225442,71.133514 L133.662417,71.133514 Z M96.9044344,18.6359815 C99.7463766,19.3889744 102.326533,20.7802182 104.480249,22.6459504 L104.480249,22.6459504 C102.667293,23.758411 100.977513,25.0551432 99.8377154,26.4935647 C95.9969316,31.3406231 98.0297413,42.3645779 93.0843584,48.313219 C90.0401911,51.9749494 86.9413458,53.713369 85.0086059,54.5088246 C82.1683701,53.3921433 79.6631735,51.6148672 77.6845165,49.36746 C80.1778764,48.3628706 82.6767344,47.2571134 83.8322651,46.2282276 C92.0142157,38.9430102 87.7360282,26.8438358 93.4812873,21.3213035 C94.5717239,20.2731399 95.7292584,19.3918886 96.9044376,18.6359794 Z M93.4943209,18.0578221 C93.0000468,18.0195134 92.5004685,18 91.9963078,18 C81.4939355,18 72.9800806,26.4677675 72.9800806,36.913288 C72.9800806,39.7672835 73.6156641,42.473634 74.7537329,44.8999619 C77.2363984,44.6590779 79.6543545,44.0209868 81.0138264,42.592156 C88.9351417,34.266703 85.4157069,27.4823704 90.0664016,21.3213035 C90.9926178,20.0942869 92.1825134,19.0090622 93.4943247,18.0578193 Z M106.334576,24.4892531 C109.247984,27.8124553 111.012535,32.1579207 111.012535,36.913288 C111.012535,47.3588085 102.49868,55.826576 91.9963078,55.826576 C91.7979453,55.826576 91.6002922,55.8235552 91.4033924,55.8175575 C92.6123704,54.6116499 93.9373814,53.0900579 95.3416571,51.1714744 C101.505637,42.7499718 98.3358307,32.3847084 102.425652,27.5819762 C103.84146,25.919374 105.143882,25.0336401 106.334576,24.4892531 L106.334576,24.4892531 Z M150.570559,96.3800516 L150.570559,101.827079 C151.237036,101.884719 151.925236,101.927949 152.635178,101.95677 C153.345121,101.98559 154.120251,102 154.960591,102 C156.003772,102 156.93103,101.89913 157.742394,101.697387 C158.553757,101.495645 159.270933,101.135395 159.893944,100.616628 C160.516955,100.097861 161.053026,99.398977 161.502173,98.519955 C161.951321,97.640933 162.349752,96.5241596 162.697479,95.1696011 L169,71.133514 L161.176181,71.133514 L158.915966,86.9126 L158.829035,86.9126 L156.438424,71.133514 L148.397276,71.133514 L154.5694,93.181004 C154.656332,93.4980283 154.736018,93.8006379 154.808461,94.0888418 C154.880904,94.3770458 154.917125,94.6076054 154.917125,94.7805278 C154.917125,94.8958094 154.87366,95.0543191 154.786728,95.2560619 C154.699797,95.4578046 154.554913,95.6523394 154.352072,95.8396719 C154.149231,96.0270045 153.881196,96.1927192 153.547957,96.3368212 C153.214719,96.4809232 152.801799,96.5529731 152.309186,96.5529731 C152.019413,96.5529731 151.729645,96.5385631 151.439873,96.5097427 C151.1501,96.4809223 150.860332,96.4376924 150.570559,96.3800516 Z" id="Discovry" fill="#FFFFFF" filter="url(#filter-1)" sketch:type="MSShapeGroup"></path>
    </g>
</svg>