<?xml version="1.0" encoding="UTF-8" standalone="no"?>
<svg width="227px" height="64px" viewBox="0 0 227 64" version="1.1" xmlns="http://www.w3.org/2000/svg" xmlns:xlink="http://www.w3.org/1999/xlink" xmlns:sketch="http://www.bohemiancoding.com/sketch/ns">
    <!-- Generator: Sketch 3.1.1 (8761) - http://www.bohemiancoding.com/sketch -->
    <title>discovry</title>
    <desc>Created with Sketch.</desc>
    <defs>
        <filter x="-50%" y="-50%" width="200%" height="200%" filterUnits="objectBoundingBox" id="filter-1">
            <feOffset dx="0" dy="-2" in="SourceAlpha" result="shadowOffsetOuter1"></feOffset>
            <feGaussianBlur stdDeviation="2" in="shadowOffsetOuter1" result="shadowBlurOuter1"></feGaussianBlur>
            <feColorMatrix values="0 0 0 0 0   0 0 0 0 0   0 0 0 0 0  0 0 0 0.35 0" in="shadowBlurOuter1" type="matrix" result="shadowMatrixOuter1"></feColorMatrix>
            <feMerge>
                <feMergeNode in="shadowMatrixOuter1"></feMergeNode>
                <feMergeNode in="SourceGraphic"></feMergeNode>
            </feMerge>
        </filter>
    </defs>
    <g id="Page-1" stroke="none" stroke-width="1" fill="none" fill-rule="evenodd" sketch:type="MSPage">
        <path d="M15.5082825,34.0315671 C15.5082825,32.1796225 15.5509053,30.6433733 15.6361523,29.4227734 C15.7213992,28.2021735 15.8812349,27.2236038 16.1156641,26.4870349 C16.3500932,25.7504661 16.6804202,25.2348756 17.106655,24.940248 C17.5328899,24.6456205 18.0869868,24.4983089 18.7689625,24.4983089 C19.4083147,24.4983089 19.9411003,24.6456205 20.3673351,24.940248 C20.7935699,25.2348756 21.1238969,25.7504661 21.3583261,26.4870349 C21.5927552,27.2236038 21.7525909,28.2021735 21.8378378,29.4227734 C21.9230848,30.6433733 21.9657076,32.1796225 21.9657076,34.0315671 C21.9657076,35.8414221 21.9230848,37.3566267 21.8378378,38.5772266 C21.7525909,39.7978265 21.5927552,40.7763962 21.3583261,41.5129651 C21.1238969,42.2495339 20.7935699,42.7651244 20.3673351,43.059752 C19.9411003,43.3543795 19.4083147,43.5016911 18.7689625,43.5016911 C18.0869868,43.5016911 17.5328899,43.3543795 17.106655,43.059752 C16.6804202,42.7651244 16.3500932,42.2495339 16.1156641,41.5129651 C15.8812349,40.7763962 15.7213992,39.7978265 15.6361523,38.5772266 C15.5509053,37.3566267 15.5082825,35.8414221 15.5082825,34.0315671 L15.5082825,34.0315671 Z M21.9657076,6 L21.9657076,20.7733935 L21.8378378,20.7733935 C21.2411091,19.0056281 20.2927509,17.7745243 18.9927347,17.0800451 C17.6927185,16.3855659 16.2328861,16.0383315 14.6131938,16.0383315 C13.036125,16.0383315 11.5869484,16.3329546 10.2656205,16.9222097 C8.94429253,17.5114648 7.82544292,18.4795122 6.90903807,19.8263811 C5.99263322,21.1732499 5.27870061,22.9409887 4.76721883,25.1296505 C4.25573705,27.3183123 4,30.0330541 4,33.2739572 C4,39.6294944 4.76721116,44.3013755 6.3016565,47.2897407 C7.83610183,50.2781059 10.5213409,51.7722661 14.3574542,51.7722661 C16.4033813,51.7722661 18.0443608,51.3513759 19.2804417,50.5095829 C20.5165227,49.6677899 21.4968481,48.2998967 22.2214473,46.4058625 L22.3493171,46.4058625 L22.3493171,51.0777903 L33.4739901,51.0777903 L33.4739901,6 L21.9657076,6 Z M38.4609125,6 L38.4609125,14.4599775 L49.969195,14.4599775 L49.969195,6 L38.4609125,6 Z M38.4609125,16.9222097 L38.4609125,51.0777903 L49.969195,51.0777903 L49.969195,16.9222097 L38.4609125,16.9222097 Z M63.6512642,40.4712514 L53.5495495,40.4712514 C53.5495495,44.2172303 54.6044649,47.0371946 56.7143272,48.9312289 C58.8241896,50.8252631 62.2872955,51.7722661 67.1037489,51.7722661 C69.2775465,51.7722661 71.2275415,51.519732 72.9537925,51.0146561 C74.6800435,50.5095803 76.1292201,49.751978 77.3013659,48.7418264 C78.4735116,47.7316748 79.379247,46.5321377 80.0185992,45.1431793 C80.6579515,43.7542208 80.9776228,42.2179716 80.9776228,40.5343856 C80.9776228,38.3457237 80.5620501,36.5885072 79.7308922,35.2626832 C78.8997343,33.9368592 77.8661304,32.8846337 76.6300494,32.1059752 C75.3939684,31.3273167 74.0620046,30.7275481 72.634118,30.3066516 C71.2062314,29.8857551 69.8742675,29.4859094 68.6381866,29.1071026 C67.4021056,28.7282957 66.3685017,28.2968833 65.5373438,27.8128523 C64.7061859,27.3288213 64.2906132,26.6027857 64.2906132,25.6347238 C64.2906132,24.7929308 64.5676617,24.140551 65.1217669,23.6775648 C65.6758722,23.2145787 66.3791491,22.9830891 67.2316187,22.9830891 C68.2119588,22.9830891 68.9685142,23.2461454 69.5013078,23.7722661 C70.0341013,24.2983867 70.300494,25.2980009 70.300494,26.7711387 L80.2743389,26.7711387 C80.2743389,19.6158981 75.9481204,16.0383315 67.2955536,16.0383315 C64.9512621,16.0383315 62.9160214,16.3119101 61.1897704,16.8590755 C59.4635194,17.406241 58.0356542,18.1638433 56.9061319,19.1319053 C55.7766097,20.0999673 54.9348085,21.2258485 54.3807033,22.5095829 C53.826598,23.7933172 53.5495495,25.1927771 53.5495495,26.7080045 C53.5495495,28.8545767 53.9651223,30.5907487 54.7962802,31.9165727 C55.627438,33.2423967 56.661042,34.3051444 57.8971229,35.1048478 C59.1332039,35.9045512 60.4651677,36.5358864 61.8930543,36.9988726 C63.320941,37.4618588 64.6529048,37.9037935 65.8889858,38.32469 C67.1250667,38.7455865 68.1586706,39.2296102 68.9898285,39.7767756 C69.8209864,40.3239411 70.2365591,41.102588 70.2365591,42.1127396 C70.2365591,43.0387119 69.9062321,43.7542252 69.2455681,44.259301 C68.5849042,44.7643768 67.8070373,45.0169109 66.9119442,45.0169109 C65.8463572,45.0169109 65.0365232,44.6170653 64.4824179,43.8173619 C64.1840535,43.438555 63.9709393,42.9545313 63.8430689,42.3652762 C63.7151984,41.7760211 63.6512642,41.1446858 63.6512642,40.4712514 L63.6512642,40.4712514 Z M101.564661,30.3066516 L111.922116,30.3066516 C111.922116,28.1600795 111.719657,26.2134623 111.314734,24.4667418 C110.909811,22.7200213 110.206534,21.2258611 109.204882,19.9842165 C108.20323,18.7425718 106.860611,17.7745243 105.176983,17.0800451 C103.493356,16.3855659 101.37287,16.0383315 98.8154606,16.0383315 C96.6416631,16.0383315 94.6170781,16.2487766 92.7416449,16.6696731 C90.8662117,17.0905696 89.235888,17.9533945 87.8506248,19.2581736 C86.4653617,20.5629528 85.3678235,22.4359141 84.5579773,24.8771139 C83.7481312,27.3183136 83.3432142,30.5591681 83.3432142,34.5997745 C83.3432142,38.3036638 83.7055083,41.2814619 84.4301075,43.5332582 C85.1547067,45.7850545 86.1669992,47.5317488 87.4670154,48.7733935 C88.7670316,50.0150382 90.333421,50.8252518 92.1662307,51.2040586 C93.9990405,51.5828655 96.0236255,51.7722661 98.2400465,51.7722661 C103.141747,51.7722661 106.679443,50.6358625 108.85324,48.3630214 C109.961451,47.1424216 110.749973,45.5851278 111.218832,43.6910936 C111.68769,41.7970593 111.922116,39.5032078 111.922116,36.8094701 L101.564661,36.8094701 L101.564661,39.0191657 C101.564661,41.1657379 101.276957,42.6388536 100.70154,43.4385569 C100.126123,44.2382603 99.3056335,44.638106 98.2400465,44.638106 C97.6006943,44.638106 97.057253,44.4802722 96.6097065,44.1645998 C96.1621599,43.8489274 95.8105215,43.2912479 95.5547806,42.4915445 C95.2990397,41.6918412 95.1178926,40.6080489 95.0113339,39.2401353 C94.9047752,37.8722216 94.8514967,36.1360496 94.8514967,34.0315671 C94.8514967,31.9270846 94.9047752,30.1909125 95.0113339,28.8229989 C95.1178926,27.4550852 95.2990397,26.3607707 95.5547806,25.5400225 C95.8105215,24.7192744 96.1621599,24.1510726 96.6097065,23.8354002 C97.057253,23.5197278 97.6006943,23.361894 98.2400465,23.361894 C99.4761275,23.361894 100.328584,23.8459177 100.797443,24.8139797 C101.053183,25.3611452 101.244986,26.0661362 101.372857,26.9289741 C101.500727,27.7918119 101.564661,28.9176932 101.564661,30.3066516 L101.564661,30.3066516 Z M125.604185,34.0315671 C125.604185,31.8849949 125.646808,30.1172561 125.732055,28.7282976 C125.817302,27.3393392 125.987793,26.2450247 126.243534,25.4453213 C126.499275,24.6456179 126.829602,24.0984607 127.234525,23.8038331 C127.639448,23.5092056 128.161578,23.361894 128.80093,23.361894 C129.440282,23.361894 129.973068,23.5092056 130.399303,23.8038331 C130.825537,24.0984607 131.155864,24.6456179 131.390294,25.4453213 C131.624723,26.2450247 131.784558,27.3393392 131.869805,28.7282976 C131.955052,30.1172561 131.997675,31.8849949 131.997675,34.0315671 C131.997675,36.1781393 131.955052,37.9353558 131.869805,39.3032694 C131.784558,40.6711831 131.624723,41.7549753 131.390294,42.5546787 C131.155864,43.3543821 130.825537,43.9015393 130.399303,44.1961669 C129.973068,44.4907944 129.440282,44.638106 128.80093,44.638106 C128.161578,44.638106 127.639448,44.4907944 127.234525,44.1961669 C126.829602,43.9015393 126.499275,43.3543821 126.243534,42.5546787 C125.987793,41.7549753 125.817302,40.6711831 125.732055,39.3032694 C125.646808,37.9353558 125.604185,36.1781393 125.604185,34.0315671 L125.604185,34.0315671 Z M143.505958,34.0315671 C143.505958,31.5482777 143.367433,29.2228594 143.090381,27.0552424 C142.813328,24.8876254 142.184641,22.9830973 141.204301,21.3416009 C140.223961,19.7001045 138.753473,18.4058672 136.792793,17.4588501 C134.832113,16.5118329 132.168185,16.0383315 128.80093,16.0383315 C125.561545,16.0383315 122.972208,16.5539219 121.032839,17.5851184 C119.093471,18.6163148 117.612327,19.9736857 116.589364,21.6572717 C115.5664,23.3408577 114.89509,25.2559081 114.575414,27.4024803 C114.255738,29.5490524 114.095902,31.7376814 114.095902,33.9684329 C114.095902,36.4517223 114.234427,38.7771406 114.511479,40.9447576 C114.788532,43.1123746 115.417219,45.0063805 116.397559,46.626832 C117.377899,48.2472836 118.848387,49.5099541 120.809067,50.4148816 C122.769747,51.3198091 125.433675,51.7722661 128.80093,51.7722661 C132.040315,51.7722661 134.629652,51.2777201 136.569021,50.2886133 C138.508389,49.2995065 139.989533,47.9737024 141.012496,46.3111612 C142.03546,44.64862 142.70677,42.7440919 143.026446,40.5975197 C143.346122,38.4509476 143.505958,36.2623186 143.505958,34.0315671 L143.505958,34.0315671 Z M164.029061,17.1116122 L159.361813,41.4182638 L159.233944,41.4182638 L154.310956,17.1116122 L145.10433,17.1116122 L153.991282,51.0777903 L164.220866,51.0777903 L172.852078,17.1116122 L164.029061,17.1116122 Z M176.112758,17.1116122 L176.112758,51.0777903 L184.935774,51.0777903 L184.935774,30.6854566 C184.935774,29.549036 185.127577,28.5915108 185.511189,27.8128523 C185.8948,27.0341938 186.406274,26.4028585 187.045626,25.9188275 C187.684978,25.4347965 188.388255,25.0875621 189.155478,24.8771139 C189.922701,24.6666656 190.689912,24.5614431 191.457135,24.5614431 C191.925993,24.5614431 192.384188,24.5719653 192.831735,24.5930101 C193.279282,24.614055 193.737477,24.6456217 194.206335,24.6877114 L194.206335,16.3540023 C193.950594,16.3119126 193.684202,16.2803458 193.407149,16.259301 C193.130096,16.2382562 192.863704,16.2277339 192.607963,16.2277339 C190.775153,16.2277339 189.219419,16.7222799 187.940715,17.7113867 C186.66201,18.7004935 185.575128,20.0157753 184.680035,21.6572717 L184.552165,21.6572717 L184.552165,17.1116122 L176.112758,17.1116122 Z M198.553909,55.4971815 L198.553909,62 L202.134263,62 C204.18019,62 205.874448,61.8526884 207.217088,61.5580609 C208.559728,61.2634333 209.710544,60.6426203 210.669573,59.6956032 C211.628601,58.748586 212.459747,57.4017374 213.163034,55.6550169 C213.866321,53.9082964 214.601565,51.6249671 215.368788,48.8049605 L223.680325,17.1116122 L214.857309,17.1116122 L210.381866,40.5975197 L210.253996,40.5975197 L205.139204,17.1116122 L195.932578,17.1116122 L205.586748,51.0777903 C205.458878,52.4667488 205.043305,53.5821078 204.340017,54.4239008 C203.63673,55.2656938 202.475258,55.686584 200.855565,55.686584 C200.088343,55.686584 199.321131,55.6234505 198.553909,55.4971815 L198.553909,55.4971815 Z" id="discovry" fill="#FFFFFF" filter="url(#filter-1)" sketch:type="MSShapeGroup"></path>
    </g>
</svg>