<?xml version="1.0" encoding="UTF-8" standalone="no"?>
<svg width="234px" height="54px" viewBox="0 0 234 54" version="1.1" xmlns="http://www.w3.org/2000/svg" xmlns:xlink="http://www.w3.org/1999/xlink" xmlns:sketch="http://www.bohemiancoding.com/sketch/ns">
    <!-- Generator: Sketch 3.1.1 (8761) - http://www.bohemiancoding.com/sketch -->
    <title>discover</title>
    <desc>Created with Sketch.</desc>
    <defs>
        <filter x="-50%" y="-50%" width="200%" height="200%" filterUnits="objectBoundingBox" id="filter-1">
            <feOffset dx="0" dy="-2" in="SourceAlpha" result="shadowOffsetOuter1"></feOffset>
            <feGaussianBlur stdDeviation="2" in="shadowOffsetOuter1" result="shadowBlurOuter1"></feGaussianBlur>
            <feColorMatrix values="0 0 0 0 0   0 0 0 0 0   0 0 0 0 0  0 0 0 0.35 0" in="shadowBlurOuter1" type="matrix" result="shadowMatrixOuter1"></feColorMatrix>
            <feMerge>
                <feMergeNode in="shadowMatrixOuter1"></feMergeNode>
                <feMergeNode in="SourceGraphic"></feMergeNode>
            </feMerge>
        </filter>
    </defs>
    <g id="Page-1" stroke="none" stroke-width="1" fill="none" fill-rule="evenodd" sketch:type="MSPage">
        <path d="M15.5110357,34.1322314 C15.5110357,32.2736363 15.5536687,30.7318702 15.638936,29.5068871 C15.7242034,28.2819039 15.8840773,27.29982 16.1185625,26.5606061 C16.3530478,25.8213921 16.6834538,25.3039501 17.1097906,25.0082645 C17.5361274,24.7125789 18.0903569,24.5647383 18.7724958,24.5647383 C19.4120009,24.5647383 19.9449139,24.7125789 20.3712507,25.0082645 C20.7975875,25.3039501 21.1279935,25.8213921 21.3624788,26.5606061 C21.596964,27.29982 21.7568379,28.2819039 21.8421053,29.5068871 C21.9273726,30.7318702 21.9700057,32.2736363 21.9700057,34.1322314 C21.9700057,35.9485858 21.9273726,37.4692317 21.8421053,38.6942149 C21.7568379,39.919198 21.596964,40.9012819 21.3624788,41.6404959 C21.1279935,42.3797098 20.7975875,42.8971519 20.3712507,43.1928375 C19.9449139,43.4885231 19.4120009,43.6363636 18.7724958,43.6363636 C18.0903569,43.6363636 17.5361274,43.4885231 17.1097906,43.1928375 C16.6834538,42.8971519 16.3530478,42.3797098 16.1185625,41.6404959 C15.8840773,40.9012819 15.7242034,39.919198 15.638936,38.6942149 C15.5536687,37.4692317 15.5110357,35.9485858 15.5110357,34.1322314 L15.5110357,34.1322314 Z M21.9700057,6 L21.9700057,20.8264463 L21.8421053,20.8264463 C21.2452338,19.0523327 20.2966486,17.8168079 18.9963214,17.1198347 C17.6959943,16.4228615 16.2358127,16.0743802 14.6157329,16.0743802 C13.0382868,16.0743802 11.5887634,16.3700613 10.2671194,16.9614325 C8.94547538,17.5528037 7.8263581,18.5243275 6.90973401,19.8760331 C5.99310992,21.2277386 5.27900652,23.0018256 4.76740238,25.1983471 C4.25579823,27.3948687 4,30.1193593 4,33.3719008 C4,39.7502615 4.7673947,44.4389198 6.30220713,47.4380165 C7.83701956,50.4371133 10.522901,51.9366391 14.3599321,51.9366391 C16.4063487,51.9366391 18.0477207,51.5142375 19.2840973,50.6694215 C20.520474,49.8246055 21.5010339,48.4518001 22.2258065,46.5509642 L22.3537068,46.5509642 L22.3537068,51.2396694 L33.4810413,51.2396694 L33.4810413,6 L21.9700057,6 Z M38.4691568,6 L38.4691568,14.4903581 L49.9801924,14.4903581 L49.9801924,6 L38.4691568,6 Z M38.4691568,16.9614325 L38.4691568,51.2396694 L49.9801924,51.2396694 L49.9801924,16.9614325 L38.4691568,16.9614325 Z M63.6655348,40.5950413 L53.5614035,40.5950413 C53.5614035,44.3544724 54.6165712,47.1845635 56.7269383,49.0853994 C58.8373054,50.9862354 62.3012398,51.9366391 67.1188455,51.9366391 C69.2931631,51.9366391 71.2436246,51.6831981 72.9702886,51.1763085 C74.6969526,50.669419 76.1464759,49.909096 77.3189021,48.8953168 C78.4913283,47.8815376 79.3972803,46.6776929 80.0367855,45.2837466 C80.6762907,43.8898002 80.9960385,42.3480342 80.9960385,40.6584022 C80.9960385,38.4618807 80.5803664,36.6983538 79.7490096,35.3677686 C78.9176529,34.0371834 77.8838017,32.9811793 76.647425,32.1997245 C75.4110483,31.4182697 74.0787659,30.8163474 72.6505376,30.3939394 C71.2223094,29.9715314 69.8900269,29.5702498 68.6536503,29.1900826 C67.4172736,28.8099155 66.3834224,28.3769538 65.5520656,27.8911846 C64.7207089,27.4054154 64.3050368,26.6767725 64.3050368,25.7052342 C64.3050368,24.8604182 64.5821515,24.2056956 65.1363894,23.7410468 C65.6906272,23.276398 66.3940723,23.0440771 67.2467459,23.0440771 C68.2273205,23.0440771 68.9840569,23.3080782 69.5169779,23.8360882 C70.0498989,24.3640981 70.3163554,25.3673021 70.3163554,26.84573 L80.2925863,26.84573 C80.2925863,19.6647942 75.9653328,16.0743802 67.3106961,16.0743802 C64.9658438,16.0743802 62.9301162,16.3489412 61.2034522,16.8980716 C59.4767882,17.447202 58.0485814,18.207525 56.9187889,19.1790634 C55.7889964,20.1506017 54.9469939,21.2805262 54.3927561,22.5688705 C53.8385183,23.8572149 53.5614035,25.2617004 53.5614035,26.7823691 C53.5614035,28.9366499 53.9770756,30.6790567 54.8084324,32.0096419 C55.6397891,33.340227 56.6736403,34.4067912 57.910017,35.2093664 C59.1463937,36.0119416 60.4786761,36.645544 61.9069044,37.1101928 C63.3351326,37.5748416 64.6674151,38.0183634 65.9037917,38.4407713 C67.1401684,38.8631793 68.1740196,39.3489412 69.0053763,39.8980716 C69.8367331,40.447202 70.2524052,41.2286451 70.2524052,42.2424242 C70.2524052,43.1717218 69.9219992,43.8898046 69.2611771,44.3966942 C68.6003551,44.9035838 67.8223022,45.1570248 66.9269949,45.1570248 C65.8611529,45.1570248 65.0511252,44.7557432 64.4968874,43.953168 C64.1984516,43.5730009 63.9852864,43.087239 63.8573854,42.4958678 C63.7294844,41.9044966 63.6655348,41.2708941 63.6655348,40.5950413 L63.6655348,40.5950413 Z M110.41313,28.7465565 C110.285229,27.3103693 109.912189,26.0431644 109.294001,24.9449036 C108.675813,23.8466428 107.876443,22.9384793 106.895869,22.2203857 C105.915294,21.5022921 104.77486,20.9531699 103.474533,20.5730028 C102.174206,20.1928356 100.777974,20.0027548 99.2857951,20.0027548 C97.2393786,20.0027548 95.4274744,20.4145964 93.8500283,21.238292 C92.2725822,22.0619876 90.950958,23.1602319 89.885116,24.5330579 C88.8192741,25.9058838 88.0092463,27.4687699 87.4550085,29.2217631 C86.9007707,30.9747562 86.6236559,32.7805233 86.6236559,34.6391185 C86.6236559,36.83564 86.8794541,38.8631679 87.3910583,40.7217631 C87.9026624,42.5803582 88.6913737,44.1960446 89.7572156,45.5688705 C90.8230576,46.9416965 92.1446818,48.0082607 93.7221279,48.768595 C95.299574,49.5289294 97.1541112,49.9090909 99.2857951,49.9090909 C100.820608,49.9090909 102.238156,49.6556499 103.538483,49.1487603 C104.838811,48.6418707 105.989903,47.944908 106.991794,47.0578512 C107.993685,46.1707945 108.814371,45.1042303 109.453877,43.8581267 C110.093382,42.6120232 110.519712,41.2497778 110.732881,39.7713499 L113.162988,39.7713499 C112.907186,41.7144266 112.374273,43.4462734 111.564233,44.9669421 C110.754193,46.4876109 109.731,47.7653759 108.494624,48.8002755 C107.258247,49.8351751 105.851357,50.6271782 104.273911,51.1763085 C102.696464,51.7254389 101.033776,52 99.2857951,52 C96.5998734,52 94.3083475,51.5247981 92.4111488,50.5743802 C90.5139501,49.6239622 88.9578442,48.3461972 87.7427844,46.7410468 C86.5277245,45.1358965 85.6324307,43.2878892 85.0568761,41.1969697 C84.4813214,39.1060502 84.1935484,36.9201216 84.1935484,34.6391185 C84.1935484,32.3581153 84.5239544,30.2038669 85.1847765,28.1763085 C85.8455985,26.1487502 86.8155001,24.3746633 88.0945105,22.8539945 C89.3735208,21.3333257 90.9509433,20.129481 92.8268251,19.2424242 C94.702707,18.3553675 96.8556755,17.9118457 99.2857951,17.9118457 C101.07641,17.9118457 102.749756,18.1336066 104.305886,18.577135 C105.862015,19.0206634 107.247589,19.685946 108.462649,20.5730028 C109.677708,21.4600595 110.668927,22.589984 111.436333,23.9628099 C112.203739,25.3356359 112.672702,26.9302021 112.843237,28.7465565 L110.41313,28.7465565 Z M117.319751,34.9559229 C117.319751,32.6326789 117.650157,30.4467504 118.310979,28.3980716 C118.971801,26.3493929 119.941703,24.5436258 121.220713,22.9807163 C122.499723,21.4178067 124.077146,20.1822819 125.953028,19.2741047 C127.82891,18.3659275 129.981878,17.9118457 132.411998,17.9118457 C134.842117,17.9118457 136.995086,18.3659275 138.870968,19.2741047 C140.74685,20.1822819 142.324272,21.4178067 143.603282,22.9807163 C144.882293,24.5436258 145.852194,26.3493929 146.513016,28.3980716 C147.173838,30.4467504 147.504244,32.6326789 147.504244,34.9559229 C147.504244,37.2791668 147.173838,39.4756554 146.513016,41.5454545 C145.852194,43.6152537 144.882293,45.4210208 143.603282,46.9628099 C142.324272,48.5045991 140.74685,49.7295639 138.870968,50.637741 C136.995086,51.5459182 134.842117,52 132.411998,52 C129.981878,52 127.82891,51.5459182 125.953028,50.637741 C124.077146,49.7295639 122.499723,48.5045991 121.220713,46.9628099 C119.941703,45.4210208 118.971801,43.6152537 118.310979,41.5454545 C117.650157,39.4756554 117.319751,37.2791668 117.319751,34.9559229 L117.319751,34.9559229 Z M119.749859,34.9559229 C119.749859,36.8989996 120.026973,38.7681269 120.581211,40.5633609 C121.135449,42.3585948 121.945477,43.9531611 123.011319,45.3471074 C124.077161,46.7410538 125.398785,47.8498581 126.976231,48.6735537 C128.553677,49.4972493 130.365581,49.9090909 132.411998,49.9090909 C134.458414,49.9090909 136.270318,49.4972493 137.847765,48.6735537 C139.425211,47.8498581 140.746835,46.7410538 141.812677,45.3471074 C142.878519,43.9531611 143.688547,42.3585948 144.242784,40.5633609 C144.797022,38.7681269 145.074137,36.8989996 145.074137,34.9559229 C145.074137,33.0128461 144.797022,31.1437188 144.242784,29.3484848 C143.688547,27.5532509 142.878519,25.9586847 141.812677,24.5647383 C140.746835,23.1707919 139.425211,22.0619876 137.847765,21.238292 C136.270318,20.4145964 134.458414,20.0027548 132.411998,20.0027548 C130.365581,20.0027548 128.553677,20.4145964 126.976231,21.238292 C125.398785,22.0619876 124.077161,23.1707919 123.011319,24.5647383 C121.945477,25.9586847 121.135449,27.5532509 120.581211,29.3484848 C120.026973,31.1437188 119.749859,33.0128461 119.749859,34.9559229 L119.749859,34.9559229 Z M165.730051,51.2396694 L162.724392,51.2396694 L149.486701,18.6721763 L152.300509,18.6721763 L164.195246,48.4517906 L164.323147,48.4517906 L175.450481,18.6721763 L178.136389,18.6721763 L165.730051,51.2396694 Z M182.548953,35.2727273 L182.548953,35.6528926 C182.548953,37.5537285 182.804751,39.3700556 183.316355,41.1019284 C183.82796,42.8338011 184.584696,44.3544471 185.586587,45.6639118 C186.588479,46.9733766 187.846154,48.0082607 189.359649,48.768595 C190.873145,49.5289294 192.631758,49.9090909 194.63554,49.9090909 C197.918334,49.9090909 200.518949,49.0537276 202.437465,47.3429752 C204.35598,45.6322229 205.677604,43.2562136 206.402377,40.214876 L208.832484,40.214876 C208.107712,44.0165479 206.540948,46.9311193 204.132145,48.9586777 C201.723342,50.986236 198.536522,52 194.57159,52 C192.141471,52 190.020477,51.5670383 188.208546,50.7011019 C186.396614,49.8351656 184.883141,48.6524409 183.668081,47.1528926 C182.453022,45.6533442 181.54707,43.8792573 180.950198,41.8305785 C180.353327,39.7818998 180.054895,37.5748511 180.054895,35.2093664 C180.054895,32.9283633 180.363985,30.7424347 180.982173,28.6515152 C181.600362,26.5605956 182.52763,24.7231484 183.764007,23.1391185 C185.000383,21.5550885 186.545831,20.2878835 188.400396,19.3374656 C190.254961,18.3870476 192.439904,17.9118457 194.955291,17.9118457 C197.25751,17.9118457 199.293238,18.3342474 201.062535,19.1790634 C202.831833,20.0238793 204.313331,21.1749238 205.507074,22.6322314 C206.700817,24.089539 207.606769,25.7791456 208.224958,27.7011019 C208.843146,29.6230583 209.152235,31.6822663 209.152235,33.8787879 C209.152235,34.0899919 209.141577,34.3328728 209.12026,34.607438 C209.098943,34.8820032 209.088285,35.1037641 209.088285,35.2727273 L182.548953,35.2727273 Z M206.658178,33.1818182 C206.57291,31.4077046 206.274479,29.7286581 205.762875,28.1446281 C205.251271,26.5605981 204.494534,25.1666727 203.492643,23.9628099 C202.490751,22.7589471 201.27571,21.7979834 199.847482,21.0798898 C198.419253,20.3617962 196.78854,20.0027548 194.955291,20.0027548 C192.994142,20.0027548 191.267504,20.3723563 189.775325,21.1115702 C188.283147,21.8507842 187.025472,22.822308 186.002264,24.0261708 C184.979055,25.2300336 184.190344,26.6345191 183.636106,28.2396694 C183.081869,29.8448198 182.740804,31.4921862 182.612903,33.1818182 L206.658178,33.1818182 Z M217.20996,25.8953168 L217.401811,25.8953168 C217.700247,24.8392968 218.243818,23.8466529 219.032541,22.9173554 C219.821264,21.9880578 220.780507,21.1854947 221.9103,20.5096419 C223.040092,19.8337891 224.297767,19.3163471 225.683362,18.9573003 C227.068956,18.5982535 228.507821,18.4398529 230,18.4820937 L230,20.8898072 C228.72099,20.720844 227.260808,20.8475645 225.619411,21.2699725 C223.978015,21.6923804 222.411251,22.6216641 220.919072,24.0578512 C220.3222,24.6914632 219.799946,25.3039456 219.352292,25.8953168 C218.904638,26.486688 218.531599,27.1414106 218.233164,27.8595041 C217.934728,28.5775977 217.700246,29.3801609 217.529711,30.2672176 C217.359177,31.1542744 217.252594,32.2102785 217.20996,33.4352617 L217.20996,51.2396694 L214.779853,51.2396694 L214.779853,18.6721763 L217.20996,18.6721763 L217.20996,25.8953168 Z" id="discover" fill="#FFFFFF" filter="url(#filter-1)" sketch:type="MSShapeGroup"></path>
    </g>
</svg>