<?xml version="1.0" encoding="UTF-8" standalone="no"?>
<svg width="226px" height="65px" viewBox="0 0 226 65" version="1.1" xmlns="http://www.w3.org/2000/svg" xmlns:xlink="http://www.w3.org/1999/xlink" xmlns:sketch="http://www.bohemiancoding.com/sketch/ns">
    <!-- Generator: Sketch 3.1.1 (8761) - http://www.bohemiancoding.com/sketch -->
    <title>discovry</title>
    <desc>Created with Sketch.</desc>
    <defs>
        <filter x="-50%" y="-50%" width="200%" height="200%" filterUnits="objectBoundingBox" id="filter-1">
            <feOffset dx="0" dy="-2" in="SourceAlpha" result="shadowOffsetOuter1"></feOffset>
            <feGaussianBlur stdDeviation="2" in="shadowOffsetOuter1" result="shadowBlurOuter1"></feGaussianBlur>
            <feColorMatrix values="0 0 0 0 0   0 0 0 0 0   0 0 0 0 0  0 0 0 0.35 0" in="shadowBlurOuter1" type="matrix" result="shadowMatrixOuter1"></feColorMatrix>
            <feMerge>
                <feMergeNode in="shadowMatrixOuter1"></feMergeNode>
                <feMergeNode in="SourceGraphic"></feMergeNode>
            </feMerge>
        </filter>
    </defs>
    <g id="Page-1" stroke="none" stroke-width="1" fill="none" fill-rule="evenodd" sketch:type="MSPage">
        <path d="M22.608,48.352 L22.608,52 L31.056,52 L31.056,6.304 L22.224,6.304 L22.224,20.768 L22.096,20.768 C21.1573286,19.4026598 20.1013392,18.3786701 18.928,17.696 C17.7546608,17.0133299 16.3360083,16.672 14.672,16.672 C11.0453152,16.672 8.3786752,18.0906525 6.672,20.928 C4.9653248,23.7653475 4.112,28.383968 4.112,34.784 C4.112,41.184032 4.9653248,45.7706528 6.672,48.544 C8.3786752,51.3173472 11.0453152,52.704 14.672,52.704 C16.464009,52.704 17.9679939,52.3840032 19.184,51.744 C20.4000061,51.1039968 21.4986618,49.9733414 22.48,48.352 L22.608,48.352 Z M12.944,34.784 C12.944,31.0293146 13.2319971,28.2026762 13.808,26.304 C14.3840029,24.4053238 15.6319904,23.456 17.552,23.456 C19.5146765,23.456 20.7839971,24.4053238 21.36,26.304 C21.9360029,28.2026762 22.224,31.0293146 22.224,34.784 C22.224,38.5386854 21.9360029,41.3653238 21.36,43.264 C20.7839971,45.1626762 19.5146765,46.112 17.552,46.112 C15.6319904,46.112 14.3840029,45.1626762 13.808,43.264 C13.2319971,41.3653238 12.944,38.5386854 12.944,34.784 L12.944,34.784 Z M37.264,5.792 L37.264,13.344 L46.096,13.344 L46.096,5.792 L37.264,5.792 Z M37.264,17.568 L37.264,52 L46.096,52 L46.096,17.568 L37.264,17.568 Z M58.768,40.736 L50.832,40.736 L50.832,41.952 C50.832,43.6160083 51.0239981,45.1199933 51.408,46.464 C51.7920019,47.8080067 52.4639952,48.9493286 53.424,49.888 C54.3840048,50.8266714 55.6853251,51.5306643 57.328,52 C58.9706749,52.4693357 61.029321,52.704 63.504,52.704 C65.3813427,52.704 67.0986589,52.5120019 68.656,52.128 C70.2133411,51.7439981 71.5573277,51.1040045 72.688,50.208 C73.8186723,49.3119955 74.7039968,48.1920067 75.344,46.848 C75.9840032,45.5039933 76.304,43.9146758 76.304,42.08 C76.304,39.4773203 75.7280058,37.4186742 74.576,35.904 C73.4239942,34.3893258 71.4613472,33.1626714 68.688,32.224 L63.376,30.432 C61.8826592,29.9626643 60.869336,29.3866701 60.336,28.704 C59.802664,28.0213299 59.536,27.2533376 59.536,26.4 C59.536,25.1626605 59.9519958,24.2346698 60.784,23.616 C61.6160042,22.9973302 62.5866611,22.688 63.696,22.688 C65.1466739,22.688 66.1599971,23.1039958 66.736,23.936 C67.3120029,24.7680042 67.6,26.079991 67.6,27.872 L75.536,27.872 L75.536,26.464 C75.536,23.3493178 74.5760096,20.9386752 72.656,19.232 C70.7359904,17.5253248 67.7706867,16.672 63.76,16.672 C61.4986554,16.672 59.568008,16.9493306 57.968,17.504 C56.367992,18.0586694 55.0560051,18.8053286 54.032,19.744 C53.0079949,20.6826714 52.2613357,21.781327 51.792,23.04 C51.3226643,24.298673 51.088,25.631993 51.088,27.04 C51.088,29.4720122 51.7066605,31.4666589 52.944,33.024 C54.1813395,34.5813411 56.0159878,35.7866624 58.448,36.64 L64.656,38.88 C65.5093376,39.221335 66.2559968,39.6799971 66.896,40.256 C67.5360032,40.8320029 67.856,41.6746611 67.856,42.784 C67.856,44.1493402 67.4506707,45.1733299 66.64,45.856 C65.8293293,46.5386701 64.7413402,46.88 63.376,46.88 C61.8826592,46.88 60.7413373,46.4213379 59.952,45.504 C59.1626627,44.5866621 58.768,43.3813408 58.768,41.888 L58.768,40.736 Z M97.296,29.984 L105.744,29.984 C105.744,25.8879795 104.709344,22.6453453 102.64,20.256 C100.570656,17.8666547 97.4880205,16.672 93.392,16.672 C91.3439898,16.672 89.4666752,16.9493306 87.76,17.504 C86.0533248,18.0586694 84.5813395,19.0293264 83.344,20.416 C82.1066605,21.8026736 81.1466701,23.658655 80.464,25.984 C79.7813299,28.309345 79.44,31.242649 79.44,34.784 C79.44,38.2400173 79.7173306,41.130655 80.272,43.456 C80.8266694,45.781345 81.6479946,47.6373264 82.736,49.024 C83.8240054,50.4106736 85.1893251,51.370664 86.832,51.904 C88.4746749,52.437336 90.4053222,52.704 92.624,52.704 C97.3173568,52.704 100.677323,51.5200118 102.704,49.152 C104.730677,46.7839882 105.744,43.3386893 105.744,38.816 L97.296,38.816 C97.296,41.6320141 96.9546701,43.6799936 96.272,44.96 C95.5893299,46.2400064 94.5013408,46.88 93.008,46.88 C92.0266618,46.88 91.2266698,46.6560022 90.608,46.208 C89.9893302,45.7599978 89.509335,45.0453382 89.168,44.064 C88.826665,43.0826618 88.5920006,41.8346742 88.464,40.32 C88.3359994,38.8053258 88.272,36.981344 88.272,34.848 C88.272,32.8426566 88.3359994,31.1040074 88.464,29.632 C88.5920006,28.1599926 88.826665,26.9440048 89.168,25.984 C89.509335,25.0239952 90.0213299,24.2986691 90.704,23.808 C91.3866701,23.3173309 92.261328,23.072 93.328,23.072 C94.1813376,23.072 94.8639974,23.2746646 95.376,23.68 C95.8880026,24.0853354 96.2826653,24.6186634 96.56,25.28 C96.8373347,25.9413366 97.0293328,26.6773293 97.136,27.488 C97.2426672,28.2986707 97.296,29.1306624 97.296,29.984 L97.296,29.984 Z M118.032,34.784 C118.032,33.0346579 118.074666,31.4133408 118.16,29.92 C118.245334,28.4266592 118.447998,27.146672 118.768,26.08 C119.088002,25.013328 119.567997,24.1813363 120.208,23.584 C120.848003,22.9866637 121.701328,22.688 122.768,22.688 C124.560009,22.688 125.79733,23.6266573 126.48,25.504 C127.16267,27.3813427 127.504,30.4746451 127.504,34.784 C127.504,39.0933549 127.16267,42.1866573 126.48,44.064 C125.79733,45.9413427 124.560009,46.88 122.768,46.88 C121.701328,46.88 120.848003,46.5813363 120.208,45.984 C119.567997,45.3866637 119.088002,44.554672 118.768,43.488 C118.447998,42.421328 118.245334,41.1413408 118.16,39.648 C118.074666,38.1546592 118.032,36.5333421 118.032,34.784 L118.032,34.784 Z M109.2,34.784 C109.2,37.7706816 109.413331,40.4053219 109.84,42.688 C110.266669,44.9706781 110.991995,46.8693258 112.016,48.384 C113.040005,49.8986742 114.426658,51.0079965 116.176,51.712 C117.925342,52.4160035 120.122653,52.7466669 122.768,52.704 C125.285346,52.704 127.407991,52.341337 129.136,51.616 C130.864009,50.890663 132.261328,49.7706742 133.328,48.256 C134.394672,46.7413258 135.162664,44.8533446 135.632,42.592 C136.101336,40.3306554 136.336,37.7280147 136.336,34.784 C136.336,31.7546515 136.122669,29.1093446 135.696,26.848 C135.269331,24.5866554 134.544005,22.6880077 133.52,21.152 C132.495995,19.6159923 131.109342,18.4746704 129.36,17.728 C127.610658,16.9813296 125.413347,16.6293331 122.768,16.672 C120.250654,16.672 118.128009,17.0666627 116.4,17.856 C114.671991,18.6453373 113.274672,19.7973258 112.208,21.312 C111.141328,22.8266742 110.373336,24.7146554 109.904,26.976 C109.434664,29.2373446 109.2,31.8399853 109.2,34.784 L109.2,34.784 Z M137.936,17.376 L146.128,52 L159.696,52 L168.144,17.376 L156.24,17.376 L153.04,42.272 L152.912,42.272 L149.648,17.376 L137.936,17.376 Z M169.744,17.376 L169.744,52 L181.264,52 L181.264,33.12 C181.264,30.8159885 181.829328,29.2160045 182.96,28.32 C184.090672,27.4239955 185.67999,26.976 187.728,26.976 C188.197336,26.976 188.666664,26.9973331 189.136,27.04 C189.605336,27.0826669 190.095997,27.1466662 190.608,27.232 L190.608,16.48 L188.752,16.48 C187.045325,16.48 185.488007,17.0239946 184.08,18.112 C182.671993,19.2000054 181.648003,20.7893229 181.008,22.88 L180.88,22.88 L180.88,17.376 L169.744,17.376 Z M194.64,54.752 L194.64,62.816 C195.621338,62.9013338 196.634661,62.9653331 197.68,63.008 C198.725339,63.0506669 199.86666,63.072 201.104,63.072 C202.640008,63.072 204.005327,62.9226682 205.2,62.624 C206.394673,62.3253318 207.450662,61.7920038 208.368,61.024 C209.285338,60.2559962 210.074663,59.2213398 210.736,57.92 C211.397337,56.6186602 211.983997,54.9653434 212.496,52.96 L221.776,17.376 L210.256,17.376 L206.928,40.736 L206.8,40.736 L203.28,17.376 L191.44,17.376 L200.528,50.016 C200.656001,50.4853357 200.773333,50.9333312 200.88,51.36 C200.986667,51.7866688 201.04,52.1279987 201.04,52.384 C201.04,52.5546675 200.976001,52.7893318 200.848,53.088 C200.719999,53.3866682 200.506668,53.6746653 200.208,53.952 C199.909332,54.2293347 199.514669,54.4746656 199.024,54.688 C198.533331,54.9013344 197.925337,55.008 197.2,55.008 C196.773331,55.008 196.346669,54.9866669 195.92,54.944 C195.493331,54.9013331 195.066669,54.8373338 194.64,54.752 L194.64,54.752 Z" id="discovry" fill="#FFFFFF" filter="url(#filter-1)" sketch:type="MSShapeGroup"></path>
    </g>
</svg>